# xmcd
#
# Track frame offsets: 
#        151
#        20134
#        37793
#        55304
#        71687
#        84614
#        101897
#        120308
#        137065
#        152324
#
# Disc length: 2232 seconds
#
# Revision: 0
# Processed by: cddbd v1.5.1PL2 Copyright (c) Steve Scherf et al.
# Submitted via: ExactAudioCopy v0.95b4
#
DISCID=7d08b60a
DTITLE=วิเชียร  ซำเหมา - เต้ยโศก
DYEAR=1900
DGENRE=Country
TTITLE0=เต้ยโศก
TTITLE1=จะกอดน้องตลอดไป
TTITLE2=แม่ของลูก
TTITLE3=ยอมแพ้ผู้เฒ่า
TTITLE4=เสน่ห์แม่มูล
TTITLE5=คนโหลๆ 
TTITLE6=ถามข่าวผู้สาวเก่า
TTITLE7=ผัวน้อยเยอรมัน
TTITLE8=ผู้บ่าวสำน้อย
TTITLE9=ตำราจีบสาว
EXTD=
EXTT0=
EXTT1=
EXTT2=
EXTT3=
EXTT4=
EXTT5=
EXTT6=
EXTT7=
EXTT8=
EXTT9=
PLAYORDER=
